<?xml version="1.0" encoding="UTF-8" standalone="no"?>
<!-- Created with Sodipodi ("http://www.sodipodi.com/") -->

<svg
   xmlns:dc="http://purl.org/dc/elements/1.1/"
   xmlns:cc="http://creativecommons.org/ns#"
   xmlns:rdf="http://www.w3.org/1999/02/22-rdf-syntax-ns#"
   xmlns:svg="http://www.w3.org/2000/svg"
   xmlns="http://www.w3.org/2000/svg"
   xmlns:xlink="http://www.w3.org/1999/xlink"
   xmlns:sodipodi="http://sodipodi.sourceforge.net/DTD/sodipodi-0.dtd"
   xmlns:inkscape="http://www.inkscape.org/namespaces/inkscape"
   xml:space="preserve"
   width="128pt"
   height="128pt"
   viewBox="0 0 507.946 507.946"
   id="svg49"
   sodipodi:version="0.27"
   sodipodi:docname="stamp.svg"
   version="1.1"
   inkscape:version="0.91 r13725"
   inkscape:export-filename="/home/egalbrun/stamp.png"
   inkscape:export-xdpi="13.5"
   inkscape:export-ydpi="13.5"><metadata
     id="metadata12"><rdf:RDF><cc:Work
         rdf:about=""><dc:format>image/svg+xml</dc:format><dc:type
           rdf:resource="http://purl.org/dc/dcmitype/StillImage" /><dc:title></dc:title></cc:Work></rdf:RDF></metadata><defs
     id="defs62"><marker
       inkscape:stockid="TriangleOutL"
       orient="auto"
       refY="0.0"
       refX="0.0"
       id="TriangleOutL"
       style="overflow:visible"><path
         id="path3955"
         d="M 5.77,0.0 L -2.88,5.0 L -2.88,-5.0 L 5.77,0.0 z "
         style="fill-rule:evenodd;stroke:#000000;stroke-width:1.0pt"
         transform="scale(0.8)" /></marker><marker
       inkscape:stockid="Arrow2Lend"
       orient="auto"
       refY="0.0"
       refX="0.0"
       id="Arrow2Lend"
       style="overflow:visible;"><path
         id="path3834"
         style="fill-rule:evenodd;stroke-width:0.62500000;stroke-linejoin:round;"
         d="M 8.7185878,4.0337352 L -2.2072895,0.016013256 L 8.7185884,-4.0017078 C 6.9730900,-1.6296469 6.9831476,1.6157441 8.7185878,4.0337352 z "
         transform="scale(1.1) rotate(180) translate(1,0)" /></marker><marker
       inkscape:stockid="Arrow1Lend"
       orient="auto"
       refY="0.0"
       refX="0.0"
       id="Arrow1Lend"
       style="overflow:visible;"><path
         id="path3816"
         d="M 0.0,0.0 L 5.0,-5.0 L -12.5,0.0 L 5.0,5.0 L 0.0,0.0 z "
         style="fill-rule:evenodd;stroke:#000000;stroke-width:1.0pt;"
         transform="scale(0.8) rotate(180) translate(12.5,0)" /></marker><radialGradient
       id="aigrd1"
       cx="218.9404"
       cy="219.7715"
       r="150.7063"
       fx="218.9404"
       fy="219.7715"
       gradientUnits="userSpaceOnUse"
       style="stroke:#000000;stroke-opacity:0.986014;stroke-width:0.981612;"><stop
         offset="0"
         style="stop-color:#73ffff;stroke:#000000;stroke-opacity:0.986014;stroke-width:0.981612;"
         id="stop53" /><stop
         offset="0.2809"
         style="stop-color:#2EA6B9;stroke:#000000;stroke-opacity:0.986014;stroke-width:0.981612;"
         id="stop54" /><stop
         offset="1"
         style="stop-color:#006b8b;stroke:#000000;stroke-opacity:0.986014;stroke-width:0.981612;"
         id="stop55" /></radialGradient><radialGradient
       inkscape:collect="always"
       xlink:href="#aigrd1"
       id="radialGradient2996"
       gradientUnits="userSpaceOnUse"
       cx="218.9404"
       cy="219.7715"
       fx="218.9404"
       fy="219.7715"
       r="150.7063" /><radialGradient
       inkscape:collect="always"
       xlink:href="#aigrd1"
       id="radialGradient3000"
       gradientUnits="userSpaceOnUse"
       cx="218.9404"
       cy="219.7715"
       fx="218.9404"
       fy="219.7715"
       r="150.7063"
       gradientTransform="matrix(-1.4456869,1.4456869,-1.4456869,-1.4456869,1000.2767,270.42425)" /><radialGradient
       id="aigrd1-6"
       cx="218.9404"
       cy="219.7715"
       r="150.7063"
       fx="218.9404"
       fy="219.7715"
       gradientUnits="userSpaceOnUse"><stop
         offset="0"
         style="stop-color:#73ffff;stroke:#000000;stroke-opacity:0.986014;stroke-width:0.981612;"
         id="stop53-7" /><stop
         offset="0.2809"
         style="stop-color:#2EA6B9;stroke:#000000;stroke-opacity:0.986014;stroke-width:0.981612;"
         id="stop54-5" /><stop
         offset="1"
         style="stop-color:#006b8b;stroke:#000000;stroke-opacity:0.986014;stroke-width:0.981612;"
         id="stop55-3" /></radialGradient></defs><sodipodi:namedview
     id="base"
     showgrid="false"
     inkscape:zoom="1.475"
     inkscape:cx="-46.440679"
     inkscape:cy="134.23729"
     inkscape:window-width="1223"
     inkscape:window-height="716"
     inkscape:window-x="65"
     inkscape:window-y="24"
     inkscape:window-maximized="0"
     inkscape:current-layer="svg49" /><path
     inkscape:connector-curvature="0"
     style="font-size:12px;fill:#a4c9ee;fill-opacity:0.7;stroke:none"
     d="M 415.5006,418.66304 C 505.74793,328.41572 506.41429,182.22582 416.97834,92.789867 327.54507,3.3565968 181.35249,4.0202788 91.105165,94.267604 0.85513514,184.51763 0.19550994,330.70616 89.62878,420.13943 c 89.43595,89.43595 235.62179,88.77364 325.87182,-1.47639 z"
     id="path51" /><path
     inkscape:connector-curvature="0"
     style="font-size:12px;fill:url(#radialGradient3000);fill-rule:evenodd;stroke:#1c6671;stroke-width:15.80622959;stroke-opacity:0.98823499"
     d="m 103.93783,405.27359 c -82.443188,-82.44319 -82.443188,-216.1114 -0.001,-298.55314 82.44318,-82.443194 216.1085,-82.443194 298.55313,0.001 82.44319,82.44319 82.44319,216.10851 0,298.5517 -82.44029,82.44029 -216.1085,82.44318 -298.55169,0 z"
     id="path56" /><path
     inkscape:connector-curvature="0"
     style="font-size:12px;fill:none;fill-rule:evenodd;stroke:#ffffff;stroke-width:22.41810417;stroke-miterlimit:4;stroke-dasharray:none;stroke-opacity:0.98823499"
     d="m 148.56076,359.38614 c -58.217845,-58.21784 -58.217845,-152.60859 -7.1e-4,-210.8254 58.21783,-58.217853 152.60654,-58.217853 210.82541,7e-4 58.21782,58.21784 58.21782,152.60655 0,210.82439 -58.21581,58.2158 -152.60656,58.21784 -210.82439,0 z"
     id="path56-5" /><path
     inkscape:connector-curvature="0"
     style="font-size:12px;fill:#ffffff;fill-opacity:1;fill-rule:evenodd;stroke:none;stroke-width:15.80622959;stroke-opacity:0.98823499"
     d="m 228.16201,279.78424 c -14.25508,-14.25508 -14.25508,-37.36738 -1.7e-4,-51.62221 14.25507,-14.25508 37.36687,-14.25508 51.6222,1.8e-4 14.25507,14.25508 14.25507,37.36687 0,51.62195 -14.25459,14.25458 -37.36688,14.25508 -51.62196,0 z"
     id="path56-5-6" /><path
     inkscape:connector-curvature="0"
     style="font-size:12px;fill:none;fill-rule:evenodd;stroke:#ffffff;stroke-width:13.5337534;stroke-miterlimit:4;stroke-dasharray:none;stroke-opacity:0.98823499"
     d="m 190.3359,317.61065 c -35.14597,-35.14596 -35.14597,-92.12942 -4.3e-4,-127.27477 35.14596,-35.14597 92.12819,-35.14597 127.27478,4.3e-4 35.14596,35.14596 35.14596,92.12819 0,127.27415 -35.14474,35.14474 -92.1282,35.14597 -127.27416,0 z"
     id="path56-5-2" /></svg>